<svg xmlns="http://www.w3.org/2000/svg" version="1.1" xmlns:xlink="http://www.w3.org/1999/xlink" xmlns:svgjs="http://svgjs.dev/svgjs" viewBox="0 0 800 800"><defs><linearGradient x1="50%" y1="0%" x2="50%" y2="100%" id="ffflurry-grad" gradientTransform="rotate(270)"><stop stop-color="hsl(238, 82%, 13%)" stop-opacity="1" offset="0%"></stop><stop stop-color="hsl(184, 74%, 44%)" stop-opacity="1" offset="45%"></stop><stop stop-color="hsl(332, 87%, 70%)" stop-opacity="1" offset="100%"></stop></linearGradient></defs><rect width="100%" height="100%" fill="hsl(238, 82%, 13%)"></rect><g fill="url(#ffflurry-grad)"><rect width="99" height="3" x="124.5" y="392.5" rx="1.5" transform="rotate(45, 174, 394)" opacity="0.87"></rect><rect width="126" height="3" x="471" y="411.5" rx="1.5" transform="rotate(45, 534, 413)" opacity="0.57"></rect><rect width="68" height="3" x="323" y="218.5" rx="1.5" transform="rotate(45, 357, 220)" opacity="0.45"></rect><rect width="79" height="3" x="475.5" y="41.5" rx="1.5" transform="rotate(45, 515, 43)" opacity="0.86"></rect><rect width="78" height="3" x="5" y="529.5" rx="1.5" transform="rotate(45, 44, 531)" opacity="0.69"></rect><rect width="320" height="3" x="586" y="416.5" rx="1.5" transform="rotate(45, 746, 418)" opacity="0.47"></rect><rect width="234" height="3" x="554" y="171.5" rx="1.5" transform="rotate(45, 671, 173)" opacity="0.66"></rect><rect width="137" height="3" x="539.5" y="545.5" rx="1.5" transform="rotate(45, 608, 547)" opacity="0.74"></rect><rect width="297" height="3" x="303.5" y="571.5" rx="1.5" transform="rotate(45, 452, 573)" opacity="0.16"></rect><rect width="163" height="3" x="454.5" y="498.5" rx="1.5" transform="rotate(45, 536, 500)" opacity="0.87"></rect><rect width="557" height="3" x="453.5" y="230.5" rx="1.5" transform="rotate(45, 732, 232)" opacity="0.30"></rect><rect width="562" height="3" x="477" y="146.5" rx="1.5" transform="rotate(45, 758, 148)" opacity="0.44"></rect><rect width="89" height="3" x="475.5" y="338.5" rx="1.5" transform="rotate(45, 520, 340)" opacity="0.29"></rect><rect width="370" height="3" x="343" y="265.5" rx="1.5" transform="rotate(45, 528, 267)" opacity="0.83"></rect><rect width="120" height="3" x="74" y="455.5" rx="1.5" transform="rotate(45, 134, 457)" opacity="0.09"></rect><rect width="372" height="3" x="240" y="24.5" rx="1.5" transform="rotate(45, 426, 26)" opacity="0.68"></rect><rect width="426" height="3" x="222" y="252.5" rx="1.5" transform="rotate(45, 435, 254)" opacity="0.91"></rect><rect width="199" height="3" x="353.5" y="354.5" rx="1.5" transform="rotate(45, 453, 356)" opacity="0.22"></rect><rect width="82" height="3" x="542" y="51.5" rx="1.5" transform="rotate(45, 583, 53)" opacity="0.47"></rect><rect width="224" height="3" x="-29" y="359.5" rx="1.5" transform="rotate(45, 83, 361)" opacity="0.68"></rect><rect width="328" height="3" x="291" y="432.5" rx="1.5" transform="rotate(45, 455, 434)" opacity="0.94"></rect><rect width="290" height="3" x="242" y="397.5" rx="1.5" transform="rotate(45, 387, 399)" opacity="0.94"></rect><rect width="610" height="3" x="28" y="462.5" rx="1.5" transform="rotate(45, 333, 464)" opacity="0.42"></rect><rect width="216" height="3" x="-10" y="219.5" rx="1.5" transform="rotate(45, 98, 221)" opacity="0.78"></rect><rect width="500" height="3" x="-111" y="743.5" rx="1.5" transform="rotate(45, 139, 745)" opacity="0.51"></rect><rect width="35" height="3" x="754.5" y="312.5" rx="1.5" transform="rotate(45, 772, 314)" opacity="0.32"></rect><rect width="426" height="3" x="44" y="279.5" rx="1.5" transform="rotate(45, 257, 281)" opacity="0.28"></rect><rect width="515" height="3" x="369.5" y="427.5" rx="1.5" transform="rotate(45, 627, 429)" opacity="0.50"></rect><rect width="510" height="3" x="447" y="324.5" rx="1.5" transform="rotate(45, 702, 326)" opacity="0.46"></rect><rect width="269" height="3" x="128.5" y="31.5" rx="1.5" transform="rotate(45, 263, 33)" opacity="0.22"></rect><rect width="469" height="3" x="-79.5" y="156.5" rx="1.5" transform="rotate(45, 155, 158)" opacity="0.38"></rect><rect width="593" height="3" x="-63.5" y="205.5" rx="1.5" transform="rotate(45, 233, 207)" opacity="0.87"></rect><rect width="551" height="3" x="3.5" y="567.5" rx="1.5" transform="rotate(45, 279, 569)" opacity="0.08"></rect><rect width="151" height="3" x="-33.5" y="744.5" rx="1.5" transform="rotate(45, 42, 746)" opacity="0.64"></rect><rect width="499" height="3" x="203.5" y="172.5" rx="1.5" transform="rotate(45, 453, 174)" opacity="0.75"></rect><rect width="248" height="3" x="320" y="92.5" rx="1.5" transform="rotate(45, 444, 94)" opacity="0.89"></rect><rect width="374" height="3" x="-102" y="34.5" rx="1.5" transform="rotate(45, 85, 36)" opacity="0.96"></rect><rect width="48" height="3" x="592" y="628.5" rx="1.5" transform="rotate(45, 616, 630)" opacity="0.19"></rect><rect width="768" height="3" x="-29" y="618.5" rx="1.5" transform="rotate(45, 355, 620)" opacity="0.90"></rect><rect width="32" height="3" x="760" y="662.5" rx="1.5" transform="rotate(45, 776, 664)" opacity="0.17"></rect><rect width="62" height="3" x="230" y="116.5" rx="1.5" transform="rotate(45, 261, 118)" opacity="0.94"></rect><rect width="321" height="3" x="520.5" y="661.5" rx="1.5" transform="rotate(45, 681, 663)" opacity="0.40"></rect><rect width="367" height="3" x="220.5" y="325.5" rx="1.5" transform="rotate(45, 404, 327)" opacity="0.62"></rect><rect width="202" height="3" x="652" y="46.5" rx="1.5" transform="rotate(45, 753, 48)" opacity="0.44"></rect><rect width="106" height="3" x="691" y="702.5" rx="1.5" transform="rotate(45, 744, 704)" opacity="0.29"></rect><rect width="426" height="3" x="307" y="619.5" rx="1.5" transform="rotate(45, 520, 621)" opacity="0.62"></rect><rect width="304" height="3" x="107" y="415.5" rx="1.5" transform="rotate(45, 259, 417)" opacity="0.47"></rect><rect width="183" height="3" x="513.5" y="122.5" rx="1.5" transform="rotate(45, 605, 124)" opacity="0.84"></rect><rect width="42" height="3" x="194" y="321.5" rx="1.5" transform="rotate(45, 215, 323)" opacity="0.65"></rect><rect width="394" height="3" x="-166" y="286.5" rx="1.5" transform="rotate(45, 31, 288)" opacity="0.62"></rect><rect width="492" height="3" x="-207" y="429.5" rx="1.5" transform="rotate(45, 39, 431)" opacity="0.25"></rect><rect width="177" height="3" x="326.5" y="498.5" rx="1.5" transform="rotate(45, 415, 500)" opacity="0.76"></rect><rect width="795" height="3" x="-233.5" y="637.5" rx="1.5" transform="rotate(45, 164, 639)" opacity="0.70"></rect><rect width="176" height="3" x="437" y="735.5" rx="1.5" transform="rotate(45, 525, 737)" opacity="0.11"></rect><rect width="343" height="3" x="517.5" y="495.5" rx="1.5" transform="rotate(45, 689, 497)" opacity="0.76"></rect><rect width="263" height="3" x="272.5" y="727.5" rx="1.5" transform="rotate(45, 404, 729)" opacity="0.74"></rect><rect width="92" height="3" x="303" y="53.5" rx="1.5" transform="rotate(45, 349, 55)" opacity="0.76"></rect><rect width="95" height="3" x="305.5" y="146.5" rx="1.5" transform="rotate(45, 353, 148)" opacity="0.79"></rect><rect width="497" height="3" x="383.5" y="743.5" rx="1.5" transform="rotate(45, 632, 745)" opacity="0.16"></rect><rect width="311" height="3" x="-16.5" y="291.5" rx="1.5" transform="rotate(45, 139, 293)" opacity="0.77"></rect><rect width="215" height="3" x="599.5" y="578.5" rx="1.5" transform="rotate(45, 707, 580)" opacity="0.50"></rect><rect width="481" height="3" x="429.5" y="57.5" rx="1.5" transform="rotate(45, 670, 59)" opacity="0.70"></rect><rect width="558" height="3" x="325" y="213.5" rx="1.5" transform="rotate(45, 604, 215)" opacity="0.47"></rect><rect width="186" height="3" x="211" y="244.5" rx="1.5" transform="rotate(45, 304, 246)" opacity="0.21"></rect><rect width="564" height="3" x="-234" y="635.5" rx="1.5" transform="rotate(45, 48, 637)" opacity="0.27"></rect><rect width="252" height="3" x="405" y="167.5" rx="1.5" transform="rotate(45, 531, 169)" opacity="0.49"></rect><rect width="307" height="3" x="160.5" y="347.5" rx="1.5" transform="rotate(45, 314, 349)" opacity="0.10"></rect><rect width="576" height="3" x="-160" y="543.5" rx="1.5" transform="rotate(45, 128, 545)" opacity="0.77"></rect><rect width="113" height="3" x="711.5" y="517.5" rx="1.5" transform="rotate(45, 768, 519)" opacity="0.16"></rect><rect width="315" height="3" x="201.5" y="294.5" rx="1.5" transform="rotate(45, 359, 296)" opacity="0.28"></rect><rect width="158" height="3" x="687" y="607.5" rx="1.5" transform="rotate(45, 766, 609)" opacity="0.49"></rect><rect width="542" height="3" x="-7" y="729.5" rx="1.5" transform="rotate(45, 264, 731)" opacity="0.51"></rect><rect width="229" height="3" x="98.5" y="519.5" rx="1.5" transform="rotate(45, 213, 521)" opacity="0.78"></rect><rect width="749" height="3" x="-331.5" y="126.5" rx="1.5" transform="rotate(45, 43, 128)" opacity="0.61"></rect><rect width="329" height="3" x="457.5" y="313.5" rx="1.5" transform="rotate(45, 622, 315)" opacity="0.66"></rect><rect width="657" height="3" x="-152.5" y="68.5" rx="1.5" transform="rotate(45, 176, 70)" opacity="0.20"></rect><rect width="346" height="3" x="569" y="765.5" rx="1.5" transform="rotate(45, 742, 767)" opacity="0.24"></rect></g></svg>